<?xml version="1.0" encoding="UTF-8"?>
<svg width="150px" height="150px" viewBox="0 0 150 150" version="1.1" xmlns="http://www.w3.org/2000/svg">
    <defs>
        <linearGradient id="logoGradient" x1="0%" y1="0%" x2="100%" y2="100%">
            <stop offset="0%" stop-color="#FFD700" />
            <stop offset="50%" stop-color="#A67C00" />
            <stop offset="100%" stop-color="#FFD700" />
        </linearGradient>
        <filter id="glow" x="-50%" y="-50%" width="200%" height="200%">
            <feGaussianBlur stdDeviation="4" result="blur" />
            <feComposite in="SourceGraphic" in2="blur" operator="over" />
        </filter>
    </defs>
    <g fill="none" stroke="url(#logoGradient)" stroke-width="3" filter="url(#glow)">
        <!-- Hexagonal Border -->
        <path d="M75,10 L130,40 L130,110 L75,140 L20,110 L20,40 Z" />
        
        <!-- Internal Network Design -->
        <!-- Central Node -->
        <circle cx="75" cy="75" r="10" fill="#FFD700" />
        
        <!-- Connecting Nodes -->
        <circle cx="105" cy="55" r="6" fill="#FFD700" />
        <circle cx="105" cy="95" r="6" fill="#A67C00" />
        <circle cx="45" cy="55" r="6" fill="#A67C00" />
        <circle cx="45" cy="95" r="6" fill="#FFD700" />
        <circle cx="75" cy="35" r="6" fill="#FFD700" />
        <circle cx="75" cy="115" r="6" fill="#A67C00" />
        
        <!-- Connection Lines -->
        <line x1="75" y1="75" x2="105" y2="55" />
        <line x1="75" y1="75" x2="105" y2="95" />
        <line x1="75" y1="75" x2="45" y2="55" />
        <line x1="75" y1="75" x2="45" y2="95" />
        <line x1="75" y1="75" x2="75" y2="35" />
        <line x1="75" y1="75" x2="75" y2="115" />
        
        <!-- Cross Connections -->
        <line x1="105" y1="55" x2="75" y2="35" />
        <line x1="75" y1="35" x2="45" y2="55" />
        <line x1="45" y1="95" x2="75" y2="115" />
        <line x1="75" y1="115" x2="105" y2="95" />
        
        <!-- Binary Data Rings -->
        <path d="M75,65 A10,10 0 0,1 75,85" />
        <path d="M75,85 A10,10 0 0,1 75,65" />
        
        <!-- Digital Pulses (animated in browser) -->
        <path d="M75,50 L75,55" />
        <path d="M75,95 L75,100" />
        <path d="M50,75 L55,75" />
        <path d="M95,75 L100,75" />
    </g>
    
    <!-- Tech Pattern Overlay -->
    <g stroke-width="1" stroke="rgba(255, 215, 0, 0.3)" opacity="0.6">
        <path d="M75,20 L120,45 L120,105 L75,130 L30,105 L30,45 Z" fill="none" />
        <path d="M75,30 L110,50 L110,95 L75,120 L40,95 L40,50 Z" fill="none" />
        
        <line x1="30" y1="45" x2="120" y2="105" stroke-dasharray="2,2" />
        <line x1="30" y1="105" x2="120" y2="45" stroke-dasharray="2,2" />
        
        <line x1="75" y1="20" x2="75" y2="130" stroke-dasharray="2,2" />
        <line x1="30" y1="75" x2="120" y2="75" stroke-dasharray="2,2" />
    </g>
</svg>